<?xml version="1.0" encoding="utf-8"?>
<!-- Generator: Adobe Illustrator 25.4.1, SVG Export Plug-In . SVG Version: 6.00 Build 0)  -->
<svg version="1.1" id="Layer_1" xmlns="http://www.w3.org/2000/svg" xmlns:xlink="http://www.w3.org/1999/xlink" x="0px" y="0px"
	 viewBox="0 0 86 25.7" style="enable-background:new 0 0 86 25.7;" xml:space="preserve">
<style type="text/css">
	.st0{enable-background:new    ;}
</style>
<desc>Created with Sketch.</desc>
<g id="Page-1">
	<g id="Desktop-HD" transform="translate(-99.000000, -53.000000)">
		<g id="Group" transform="translate(97.000000, 53.000000)">
			<g class="st0">
				<path d="M3.2,1.7h13v3.7H7.1V11h8.1v3.7H7.1v5.8h9.3v3.6H3.2V1.7z"/>
				<path d="M38.7,21.9c-1.4,1.5-4.3,2.5-7.2,2.5c-6.8,0-11.6-4.6-11.6-11.6c0-6.4,4.1-11.6,11.5-11.6c2.9,0,5.3,0.9,6.8,2.3
					l-1.8,2.9c-1.3-0.9-2.8-1.5-5.1-1.5c-4.2,0-7.3,3-7.3,7.9c0,4.7,3.2,7.9,7.7,7.9c1.9,0,3.8-0.6,5.3-1.8L38.7,21.9z"/>
				<path d="M51.6,1.4C58.3,1.4,63.3,6,63.3,13c0,6.7-5,11.6-11.7,11.6S40,20,40,13C40,6.4,44.7,1.4,51.6,1.4z M51.6,20.8
					c4.7,0,7.5-3.5,7.5-7.9c0-4.6-3.3-7.9-7.5-7.9c-4.3,0-7.5,3.2-7.5,7.9C44.1,17.4,47.4,20.8,51.6,20.8z"/>
				<path d="M83.8,24.1L71.5,8.6v15.5h-3.7V1.7h3.1l12.3,15.6V1.7h3.7v22.4H83.8z"/>
			</g>
		</g>
	</g>
</g>
</svg>
