<?xml version="1.0" encoding="utf-8"?>
<!-- Generator: Adobe Illustrator 23.0.6, SVG Export Plug-In . SVG Version: 6.00 Build 0)  -->
<svg version="1.1" id="Layer_1" xmlns="http://www.w3.org/2000/svg" xmlns:xlink="http://www.w3.org/1999/xlink" x="0px" y="0px"
	 viewBox="0 0 276 77" style="enable-background:new 0 0 276 77;" xml:space="preserve">
<style type="text/css">
	.st0{enable-background:new    ;}
	.st1{fill:#696969;}
	.st2{fill:none;stroke:#DFDFDF;stroke-linecap:square;}
</style>
<title>Group</title>
<desc>Created with Sketch.</desc>
<g id="Page-1">
	<g id="Desktop-HD" transform="translate(-99.000000, -53.000000)">
		<g id="Group" transform="translate(97.000000, 53.000000)">
			<g class="st0">
				<path d="M3.1,24.6h13v3.7H7v5.6h8.1v3.7H7v5.8h9.3V47H3.1V24.6z"/>
				<path d="M38.6,44.8c-1.4,1.5-4.3,2.5-7.2,2.5c-6.8,0-11.6-4.6-11.6-11.6c0-6.4,4.1-11.6,11.5-11.6c2.9,0,5.3,0.9,6.8,2.3
					l-1.8,2.9c-1.3-0.9-2.8-1.5-5.1-1.5c-4.2,0-7.3,3-7.3,7.9c0,4.7,3.2,7.9,7.7,7.9c1.9,0,3.8-0.6,5.3-1.8L38.6,44.8z"/>
				<path d="M51.5,24.3c6.7,0,11.7,4.6,11.7,11.6c0,6.7-5,11.6-11.7,11.6c-6.7,0-11.6-4.6-11.6-11.6C39.9,29.3,44.6,24.3,51.5,24.3z
					 M51.5,43.7c4.7,0,7.5-3.5,7.5-7.9c0-4.6-3.3-7.9-7.5-7.9c-4.3,0-7.5,3.2-7.5,7.9C44,40.3,47.3,43.7,51.5,43.7z"/>
				<path d="M83.7,47L71.4,31.5V47h-3.7V24.6h3.1l12.3,15.6V24.6h3.7V47H83.7z"/>
			</g>
			<g class="st0">
				<path class="st1" d="M161.5,41.2c-0.6,0.6-1.6,0.9-2.7,0.9c-2.5,0-4.3-1.7-4.3-4.3c0-2.4,1.6-4.3,4.2-4.3c1.1,0,2,0.3,2.6,0.8
					l-0.5,0.8c-0.6-0.4-1.2-0.6-2.1-0.6c-1.8,0-3.1,1.4-3.1,3.4c0,2,1.3,3.4,3.3,3.4c0.8,0,1.6-0.3,2.1-0.7L161.5,41.2z"/>
				<path class="st1" d="M168.8,38.2h-4.6V42h-1v-8.4h1v3.6h4.6v-3.6h1V42h-1V38.2z"/>
				<path class="st1" d="M172.6,33.6h1V42h-1V33.6z"/>
				<path class="st1" d="M182.5,42l-5.2-6.6V42h-1v-8.4h0.8l5.2,6.6v-6.6h1V42H182.5z"/>
				<path class="st1" d="M188.4,33.6h0.9l3.6,8.4h-1.1l-1.1-2.5h-3.8l-1.1,2.5h-1L188.4,33.6z M187.3,38.5h3l-1.5-3.6L187.3,38.5z"
					/>
				<path class="st1" d="M197,33.6c0.5,0,1.5,0,2.3,0c2,0,2.7,0.9,2.7,2.1c0,1.1-0.6,1.7-1.4,1.9v0c1,0.2,1.7,0.8,1.7,2
					c0,1.7-1.3,2.4-3,2.4c-0.7,0-1.8,0-2.3,0V33.6z M198.1,34.6v2.7h1.3c0.9,0,1.6-0.5,1.6-1.4c0-0.9-0.6-1.3-1.7-1.3
					C198.9,34.5,198.3,34.6,198.1,34.6z M198.1,38.2V41c0.3,0,0.8,0,1.3,0c1.2,0,2-0.5,2-1.5c0-0.9-0.7-1.4-1.9-1.4H198.1z"/>
				<path class="st1" d="M204.4,42v-8.4c0.5,0,2,0,2.3,0c2.3,0,3,1.1,3,2.5c0,1.3-0.9,2.1-1.8,2.4l2.8,3.5h-1.2l-2.6-3.4h-1.4V42
					H204.4z M205.5,34.6v3.1h1.2c1,0,1.9-0.6,1.9-1.6c0-0.9-0.5-1.5-2-1.5C206.4,34.5,205.8,34.6,205.5,34.6z"/>
				<path class="st1" d="M214.5,33.6h0.9L219,42h-1.1l-1.1-2.5H213L212,42h-1L214.5,33.6z M213.4,38.5h3l-1.5-3.6L213.4,38.5z"/>
				<path class="st1" d="M226.7,42l-5.2-6.6V42h-1v-8.4h0.8l5.2,6.6v-6.6h1V42H226.7z"/>
				<path class="st1" d="M230,33.6h0.1c0.6,0,1.5,0,2.1,0c3.4,0,4.7,1.9,4.7,4.1c0,2.4-1.6,4.3-4.8,4.3c-0.6,0-1.4,0-2.1,0H230V33.6
					z M231,34.6V41c0.6,0,1.1,0,1.2,0c2.4,0,3.7-1.4,3.7-3.4c0-1.8-1.2-3.2-3.7-3.2C231.8,34.5,231.4,34.6,231,34.6z"/>
				<path class="st1" d="M241.1,35.7c0-1.2,0.9-2.2,2.5-2.2c1,0,1.8,0.3,2.3,0.9l-0.6,0.8c-0.4-0.4-1-0.7-1.7-0.7
					c-0.9,0-1.5,0.5-1.5,1.2c0,2.1,4.1,1.3,4.1,4.2c0,1.4-1.2,2.3-2.7,2.3c-1,0-2.2-0.5-2.7-1.3l0.6-0.7c0.5,0.6,1.4,1,2.1,1
					c0.9,0,1.6-0.5,1.6-1.3C245.2,37.8,241.1,38.5,241.1,35.7z"/>
				<path class="st1" d="M247,33.6h6.9v1H251V42h-1v-7.4H247V33.6z"/>
				<path class="st1" d="M258.5,33.5c2.4,0,4.3,1.8,4.3,4.3c0,2.5-1.8,4.3-4.3,4.3s-4.3-1.8-4.3-4.3C254.2,35.4,256,33.5,258.5,33.5
					z M258.5,41.2c1.9,0,3.2-1.5,3.2-3.4c0-2-1.4-3.4-3.2-3.4c-1.8,0-3.2,1.4-3.2,3.4C255.3,39.7,256.7,41.2,258.5,41.2z"/>
				<path class="st1" d="M264.7,42v-8.4c0.5,0,2,0,2.3,0c2.3,0,3,1.1,3,2.5c0,1.3-0.9,2.1-1.8,2.4l2.8,3.5h-1.2l-2.6-3.4h-1.4V42
					H264.7z M265.7,34.6v3.1h1.2c1,0,1.9-0.6,1.9-1.6c0-0.9-0.5-1.5-2-1.5C266.6,34.5,266.1,34.6,265.7,34.6z"/>
				<path class="st1" d="M272.4,33.6h4.7v1h-3.7v2.7h3.4v1h-3.4V41h3.8v1h-4.9V33.6z"/>
			</g>
			<path id="Line" class="st2" d="M122.5,0.5V76"/>
		</g>
	</g>
</g>
</svg>
